<svg id="Layer_1" data-name="Layer 1" xmlns="http://www.w3.org/2000/svg" viewBox="0 0 20 20"><title>Artboard 1</title><path d="M7,11l-.6,1.82H5.64l2-5.8h.9l2,5.8H9.7L9.08,11Zm1.9-.59L8.35,8.77c-.13-.38-.22-.72-.3-1.06H8c-.09.34-.18.7-.29,1.05l-.57,1.68Z"/><path d="M13.67,12.85l-.06-.52h0a1.55,1.55,0,0,1-1.27.62A1.19,1.19,0,0,1,11,11.75c0-1,.9-1.56,2.5-1.55v-.09a.86.86,0,0,0-.95-1,2.08,2.08,0,0,0-1.08.31L11.34,9a2.59,2.59,0,0,1,1.37-.37c1.27,0,1.58.87,1.58,1.7v1.56a5.84,5.84,0,0,0,.07,1Zm-.11-2.13c-.83,0-1.76.13-1.76.94a.67.67,0,0,0,.71.72,1,1,0,0,0,1-.7.81.81,0,0,0,0-.24Z"/><path d="M14.72,17.95H5.28a3.23,3.23,0,0,1-3.23-3.23V5.28A3.23,3.23,0,0,1,5.28,2.05h9.43a3.23,3.23,0,0,1,3.23,3.23v9.43A3.23,3.23,0,0,1,14.72,17.95ZM5.28,2.77A2.52,2.52,0,0,0,2.77,5.28v9.43a2.52,2.52,0,0,0,2.51,2.51h9.43a2.52,2.52,0,0,0,2.51-2.51V5.28a2.52,2.52,0,0,0-2.51-2.51Z"/></svg>