<svg id="Background" xmlns="http://www.w3.org/2000/svg" viewBox="0 0 441 274"><defs><style>.cls-1,.cls-2{fill:none;stroke:#000;stroke-miterlimit:10;}.cls-1{stroke-width:5px;}.cls-2{stroke-width:2.39px;}</style></defs><title>facer</title><path d="M404.72,257.5H38.33c-2.54,0-5.1.1-7.63,0-10-.41-14-8.36-14-17.18V100.42c0-14.9-.56-29.91,0-44.8.61-16.15,16.61-14.12,27.8-14.12H389.19c11.38,0,28.75-2.53,29.48,14,.6,13.79,0,27.75,0,41.55V239.09c0,1.43.05,2.87,0,4.3-.3,7.88-6,13.82-13.94,14.12-5.77.21-5.8,9.21,0,9,13.86-.51,22.88-11.24,22.94-24.68,0-6.68,0-13.36,0-20V69.29c0-4.58.14-9.2,0-13.78-.42-13.17-10.49-22.71-23.53-23-32.59-.73-65.29,0-97.88,0h-170c-34.71,0-69.44-.23-104.15,0-10.66.07-20.32,5.8-23.53,16.42-1.53,5.07-.94,11-.94,16.26V239.73c0,10.08,3.06,19.67,12.9,24.44,8.56,4.16,21.18,2.33,30.39,2.33H404.72C410.51,266.5,410.52,257.5,404.72,257.5Z"/><circle class="cls-1" cx="217.66" cy="149.5" r="95.5"/><circle class="cls-2" cx="217.66" cy="149.5" r="76"/><path class="cls-2" d="M161,125s8-31,38-34"/><circle class="cls-2" cx="53.5" cy="68.5" r="5.5"/><path class="cls-2" d="M140.82,37.6S144.51,22,160.51,19c10.81-2,106-2,117,0,8.41,1.53,13,5,17,16"/></svg>