<svg id="Background" xmlns="http://www.w3.org/2000/svg" viewBox="0 0 397 374"><defs><style>.cls-1{fill:#373132;}</style></defs><title>facer</title><path class="cls-1" d="M16,341.68s9.2-49.93,29.24-58.49,91.13-24.72,96.79-43.3c.81-5.66.81-20.2,0-25.85-8.89-18.58-11.31-30.7-11.31-30.7s-7.27,5.66-8.08,3.23-4.85-16.16-4.85-16.16-8.89-18.58-9.69-22.62a13.68,13.68,0,0,1,0-6.46s.81-4,3.23-4.85,3.23,0,3.23,0L98.4,88l11.31,6.46,1.62-32.31,12.93,3.23,11.31-25.85,8.08,14.54s41.2-23.43,58.17-30.7,11.31-8.08-3.23,12.93c-13.89,20.06,25.14-4.23,26.66-2.42.91,1.08-13.51,17.56-11.31,17.77,4.82.47,30.7-14.54,33.93-14.54S236.55,61.36,230.08,66.2s29.6-12.72,24.24-6.46c-9.69,11.31,4.85,22.62,4.85,22.62s-1.62,19.39,1.62,22.62c3.59,3.59-7.69,15.8-13.25,21.39a5.36,5.36,0,0,0-.85,6.44l2.51,4.38a9,9,0,0,1,.83,7l-9.08,31.15a9.44,9.44,0,0,1-4.84,5.8l-4.37,2.18a3.85,3.85,0,0,0-2,2.64c-2,9.58-12.52,49.88,5.25,61.19,16.47,10.48,92.74,33.46,100.17,38.78,11.31,8.08,27.47,50.09,24.24,54.93S16,341.68,16,341.68Z"/></svg>