<svg id="Background" xmlns="http://www.w3.org/2000/svg" viewBox="0 0 315 320"><defs><style>.cls-1{fill:#f8f7f7;}.cls-2{fill:#373132;}</style></defs><title>search</title><path class="cls-1" d="M207,14a98,98,0,0,0-77.14,158.46l-106,120.72a8.1,8.1,0,0,0-1.86,8.5,9.45,9.45,0,0,0,8.16,6.16l3.54.25a8.79,8.79,0,0,0,6.89-2.58L158.09,196.94A98,98,0,1,0,207,14Zm0,171a74,74,0,1,1,74-74A73.71,73.71,0,0,1,207,185Z"/><path class="cls-2" d="M207,14.5a97.65,97.65,0,0,0-90.46,134.19,98.92,98.92,0,0,0,13.62,23.53l.2.25-.21.24L72.07,238.77l-29,33L28.51,288.31l-3.63,4.13c-.59.71-1.26,1.34-1.75,2.06a7.56,7.56,0,0,0-1.1,2.4,8.57,8.57,0,0,0,3.79,9.2,9.5,9.5,0,0,0,5.06,1.52l2.74.2a8.59,8.59,0,0,0,2.64-.2,9.17,9.17,0,0,0,4.53-2.7l4-3.73L61,286.27l32.32-29.82L158,196.8l.1-.1.12.07a98,98,0,0,0,86.34,5.61,97.4,97.4,0,0,0,19.53-10.89,94.62,94.62,0,0,0,16.56-15,97.83,97.83,0,0,0,12.75-18.37A97.89,97.89,0,0,0,303,92.85a97.89,97.89,0,0,0-18.36-40.49,97.79,97.79,0,0,0-34.36-28.24A98.29,98.29,0,0,0,207,14Zm0-.5a98.32,98.32,0,0,1,43.34,10.08A97.87,97.87,0,0,1,284.76,52.3a98,98,0,0,1,18.43,40.52,98.07,98.07,0,0,1-9.63,65.37,98.06,98.06,0,0,1-12.76,18.43,94.87,94.87,0,0,1-16.59,15.08A97.66,97.66,0,0,1,200.67,210,97.73,97.73,0,0,1,158,197.11l.23,0L93.65,256.79,61.37,286.65,45.23,301.58l-4,3.73a9.74,9.74,0,0,1-4.79,2.84,9.16,9.16,0,0,1-2.81.22l-2.74-.19a10.09,10.09,0,0,1-5.33-1.61,9.8,9.8,0,0,1-3.6-4.27,8.41,8.41,0,0,1-.45-5.57,8.15,8.15,0,0,1,1.18-2.58,8.05,8.05,0,0,1,.89-1.1l.91-1,3.63-4.13,14.5-16.53,29-33.05,58-66.11v.49A99.7,99.7,0,0,1,115.8,149a97.69,97.69,0,0,1-6.65-26.59,98.3,98.3,0,0,1,45.64-93.88,94.79,94.79,0,0,1,12.13-6.47c1-.48,2.09-.95,3.16-1.35l3.2-1.26c2.18-.72,4.33-1.53,6.55-2.1A99.49,99.49,0,0,1,207,13.5Z"/><path class="cls-2" d="M207,185.5a74.51,74.51,0,0,1-68.75-46,75.72,75.72,0,0,1-4.22-14,77.82,77.82,0,0,1-1.4-14.52A74.4,74.4,0,1,1,207,185Zm0-.5a74,74,0,1,0-73.62-74,77.06,77.06,0,0,0,1.42,14.36,74.91,74.91,0,0,0,4.2,13.8,73.52,73.52,0,0,0,68,45.33Z"/></svg>