<svg id="Background" xmlns="http://www.w3.org/2000/svg" viewBox="0 0 315 320"><defs><style>.cls-1{fill:#f8f7f7;}.cls-2{fill:#44a3c8;}</style></defs><title>search</title><path class="cls-1" d="M207,14a98,98,0,0,0-77.14,158.46l-106,120.72a8.1,8.1,0,0,0-1.86,8.5,9.45,9.45,0,0,0,8.16,6.16l3.54.25a8.79,8.79,0,0,0,6.89-2.58L158.09,196.94A98,98,0,1,0,207,14Zm0,171a74,74,0,1,1,74-74A73.71,73.71,0,0,1,207,185Z"/><path class="cls-2" d="M207,14.1a97.2,97.2,0,0,0-87.6,55.26,98.11,98.11,0,0,0,11.13,102.57l.43.56-.46.53c-19.37,22-38.89,43.89-58.33,65.84l-29.12,33L28.51,288.31l-3.62,4.14c-.59.71-1.25,1.34-1.74,2.06a7.53,7.53,0,0,0-1.08,2.39,8.52,8.52,0,0,0,3.8,9.13,9.42,9.42,0,0,0,5,1.49l2.74.19a8.49,8.49,0,0,0,2.61-.21,8.28,8.28,0,0,0,2.42-1,11.47,11.47,0,0,0,2.05-1.68l4-3.74,16.11-15,32.21-29.94,64.4-59.91.49-.46.59.34a97.25,97.25,0,0,0,85.62,5.4,96.48,96.48,0,0,0,19.35-10.79,93.69,93.69,0,0,0,16.41-14.88,96.93,96.93,0,0,0,12.64-18.2,100.4,100.4,0,0,0,8.17-20.6A98.38,98.38,0,0,0,302.34,93a97.28,97.28,0,0,0-18-40.37,99.75,99.75,0,0,0-15.4-16.13A96.89,96.89,0,0,0,207,14.1Zm0-.2a98.46,98.46,0,0,1,43.43,10A102.69,102.69,0,0,1,269.36,36,100.58,100.58,0,0,1,285.1,52a98.62,98.62,0,0,1,18.79,40.64,100,100,0,0,1-1.26,44.88,98,98,0,0,1-21.14,39.66,95.78,95.78,0,0,1-16.74,15.22,98.89,98.89,0,0,1-86.37,14.3,99.78,99.78,0,0,1-20.74-9l1.09-.12L93.91,257.07,61.52,286.8,45.32,301.68l-4,3.72a12.29,12.29,0,0,1-2.2,1.78,9.07,9.07,0,0,1-2.65,1.08,9.26,9.26,0,0,1-2.85.21l-2.74-.2a10.17,10.17,0,0,1-5.37-1.64,9.87,9.87,0,0,1-3.61-4.31,8.46,8.46,0,0,1-.43-5.6,8.18,8.18,0,0,1,1.19-2.58,8.06,8.06,0,0,1,.9-1.1l.91-1,3.64-4.12,14.48-16.55,28.92-33.13c19.25-22.11,38.43-44.28,57.75-66.32l0,1.08a100.19,100.19,0,0,1-13.85-23.81,96.7,96.7,0,0,1-6.61-26.73,94.07,94.07,0,0,1-.44-13.79l0-1.72.13-1.72.28-3.44c.32-2.28.53-4.57,1-6.83A99,99,0,0,1,167,22.31c1-.48,2.08-.94,3.16-1.34l3.2-1.24c2.17-.71,4.32-1.51,6.53-2.08A99.13,99.13,0,0,1,207,13.9Z"/><path class="cls-2" d="M207,185.1a75.51,75.51,0,0,1-52.77-21.33,73.44,73.44,0,0,1-16.41-24.11,71.44,71.44,0,0,1-4.27-14A78.28,78.28,0,0,1,132.17,111a74.24,74.24,0,0,1,13-41.34,75.65,75.65,0,0,1,9.3-11.23A76.49,76.49,0,0,1,178.54,42.3,75.67,75.67,0,0,1,207,36.45a74.74,74.74,0,0,1,28.62,5.46A74,74,0,0,1,260,58a75.19,75.19,0,0,1,16.35,24.27,73.9,73.9,0,0,1-16.55,81.51A75.54,75.54,0,0,1,207,185.1Zm0-.2a72.31,72.31,0,0,0,51.86-22A74.38,74.38,0,0,0,280,111a73.54,73.54,0,0,0-73-73.45,72.48,72.48,0,0,0-61.19,32.57,73.37,73.37,0,0,0-12,40.88,76.57,76.57,0,0,0,1.44,14.27A79.87,79.87,0,0,0,139.42,139a75.55,75.55,0,0,0,15.7,23.89,73.66,73.66,0,0,0,23.66,16.25A72.83,72.83,0,0,0,207,184.9Z"/></svg>