<svg id="Background" xmlns="http://www.w3.org/2000/svg" viewBox="0 0 1016 537"><defs><style>.cls-1{fill:#7e8484;}.cls-2{fill:#ecf1f1;}.cls-3{font-size:98px;fill:#292c3b;font-family:Roboto-Thin, Roboto;}</style></defs><title>white</title><path class="cls-1" d="M263,440c8.26-.62,24.69-8.6,37-8,19.67,1,29.24,38.7,41.88,49.43a148.7,148.7,0,0,0,39.44,23.7C412.58,518,508.74,520.27,532,511s75.56-41.11,82-63c37.39,9.49,71.07,16.17,106,1s68.28-49.75,98-72c41.18,10.37,84.13,15.9,119.58-5.39s59.5-56.89,63.95-94.65c5-42.05,2.15-89.64-76.08-121.78-76-31.24-96.37.88-114.83,1.28-9.74-25.72-40.75-40.76-71-45-16.33-2.28-32.89-2.1-49.36-1.62-13,.38-30.75-1.73-43,1.95-22.65-25.69-49.58-40.06-83.51-52.36-8.79-3.19-17.66-6.29-26.91-8.17-14.5-2.95-29.56-2.81-44.43-2.27s-29.74,1.46-44.24,4.3c-26,5.1-49.77,16.22-72.73,27.86-11.95,6.06-23.74,12.37-35.83,18.21-8.42,4.07-19.37,12.05-28.55,14-11.35,2.44-28.44-3.05-40.15-4a340.67,340.67,0,0,0-40.11-.92c-26.37,1-52.72,5.75-76.61,16C112,142.52,79,181.9,80.13,222.52c.19,6.61-5.13,12.45-12.53,13.22C53,237.27,38.8,248.33,30.92,260.41,8,295.52,18.22,348.33,59.59,365.61,79.9,374.09,101.7,389.34,117,404c9.11,8.73,28.22,14.92,39,22,24.26,15.94,41.81,13.42,72,13C232.75,438.93,258.27,440.36,263,440Z"/><path class="cls-2" d="M237.75,416.36c8.26-.62,16.48-1.66,24.64-3,12.24-2,27.69-8.65,40-8.05,19.67,1,26.85,28.9,39.5,39.63a148.7,148.7,0,0,0,39.44,23.7c31.26,12.9,66.34,16.89,100.81,16.87,25.5,0,51.54-2.27,74.8-11.54s43.53-26.5,50-48.39c37.39,9.49,78.16,2.1,113.08-13.08s65-37.64,94.77-59.88c41.18,10.37,87.38,3.79,122.83-17.5s59.5-56.89,63.95-94.65c5-42.05,2.15-89.64-76.08-121.78-76-31.24-96.37.88-114.83,1.28-9.74-25.72-40.75-40.76-71-45-16.33-2.28-32.89-2.1-49.36-1.62-13,.38-30.75-1.73-43,1.95C624.68,49.63,597.75,35.26,563.81,23c-8.79-3.19-17.66-6.29-26.91-8.17-14.5-2.95-29.56-2.81-44.43-2.27s-29.74,1.46-44.24,4.3c-26,5.1-49.77,16.22-72.73,27.86C363.55,50.74,351.76,57,339.67,62.88c-8.42,4.07-19.37,12.05-28.55,14-11.35,2.44-28.44-3.05-40.15-4A340.67,340.67,0,0,0,230.85,72c-26.37,1-52.72,5.75-76.61,16C112,106,79,145.42,80.13,186c.19,6.61-5.13,12.45-12.53,13.22C53,200.79,38.8,211.85,30.92,223.94,8,259,18.22,311.86,59.59,329.14,79.9,337.62,93.67,356,109,370.62c9.11,8.73,18.29,17.52,29.06,24.6,24.26,15.94,55.32,22.2,85.5,21.78Q230.65,416.9,237.75,416.36Z"/><text class="cls-3" transform="translate(136.85 273.44) scale(1.22 1)">Person added!</text></svg>