<?xml version="1.0" standalone="no"?>
<!DOCTYPE svg PUBLIC "-//W3C//DTD SVG 20010904//EN"
 "http://www.w3.org/TR/2001/REC-SVG-20010904/DTD/svg10.dtd">
<svg version="1.0" xmlns="http://www.w3.org/2000/svg"
 width="480.000000pt" height="480.000000pt" viewBox="0 0 480.000000 480.000000"
 preserveAspectRatio="xMidYMid meet">
<metadata>
Created by potrace 1.11, written by Peter Selinger 2001-2013
</metadata>
<g transform="translate(0.000000,480.000000) scale(0.100000,-0.100000)"
fill="#000000" stroke="none">
<path d="M3275 4735 c46 -145 -47 -322 -264 -499 -74 -61 -168 -126 -182 -126
-5 0 -9 22 -9 48 0 62 -26 140 -58 175 -34 35 -42 34 -42 -7 0 -43 -17 -91
-49 -139 l-25 -39 -11 40 c-19 64 -22 64 -71 16 -58 -58 -145 -98 -371 -169
-449 -142 -587 -192 -728 -262 -164 -83 -281 -178 -315 -257 l-17 -41 -21 35
c-12 19 -26 58 -32 87 -6 29 -15 53 -20 53 -14 0 -59 -100 -71 -159 -13 -62
-6 -167 16 -251 19 -72 20 -70 -13 -70 -16 0 -31 -3 -34 -6 -4 -3 9 -37 27
-77 18 -39 31 -76 29 -81 -14 -37 -106 -451 -110 -496 -5 -47 -2 -62 21 -105
34 -64 101 -164 188 -284 l68 -95 -24 -13 c-20 -10 -25 -22 -30 -74 -6 -67 5
-193 22 -272 29 -126 124 -270 226 -345 60 -43 65 -50 70 -92 12 -99 35 -153
85 -200 57 -54 205 -143 393 -237 149 -74 151 -75 152 -159 0 -54 -23 -79 -86
-94 -59 -14 -61 -27 -24 -126 59 -157 190 -271 377 -329 l87 -27 73 22 c223
67 376 216 416 403 11 53 12 51 -49 61 -58 10 -79 37 -79 104 0 31 4 62 8 68
4 6 86 51 183 101 203 105 333 186 371 232 30 35 68 145 68 195 0 27 9 38 64
78 78 56 138 130 182 223 52 108 67 183 68 328 1 137 -2 147 -51 147 -27 0
-27 0 -7 48 120 282 174 439 174 506 0 54 -32 116 -89 170 l-30 28 35 62 c19
33 56 102 81 151 l47 90 -1 100 c-2 153 -67 521 -134 748 -31 105 -35 72 -6
-45 70 -278 117 -567 117 -713 0 -74 -3 -88 -40 -164 -22 -45 -59 -114 -82
-153 -34 -58 -45 -69 -62 -64 -12 3 -46 12 -76 21 -83 24 -166 22 -202 -5 -16
-12 -32 -19 -36 -16 -11 12 -13 207 -3 277 7 39 9 74 6 77 -7 7 -104 5 -209
-4 -65 -5 -77 -4 -70 7 5 9 -2 7 -20 -4 -34 -23 -44 -16 -22 15 29 41 17 39
-26 -4 l-41 -43 36 68 c33 62 34 66 12 50 -13 -10 -25 -21 -25 -24 0 -4 -12
-15 -27 -25 -25 -16 -26 -16 -14 -1 8 10 11 20 9 23 -3 3 -22 -18 -43 -46 -38
-52 -61 -71 -27 -22 29 41 33 59 14 59 -10 0 -24 -5 -32 -12 -37 -29 -41 -28
-26 10 9 20 25 51 37 68 20 31 20 31 0 9 -11 -13 -30 -36 -41 -50 -12 -15 -7
-2 10 30 26 47 28 56 14 54 -10 -2 -31 -18 -47 -37 l-30 -34 22 39 c33 59 18
54 -25 -8 -43 -61 -65 -75 -37 -23 9 17 16 36 15 41 -2 4 1 13 5 20 4 6 -4 -2
-19 -19 -28 -30 -36 -29 -19 4 8 14 5 17 -14 17 -19 0 -22 -3 -14 -17 6 -12 5
-20 -1 -24 -6 -4 -9 -1 -8 5 2 6 -8 19 -22 28 -13 9 -21 11 -16 5 4 -7 0 -23
-8 -35 -10 -13 -16 -17 -16 -9 0 15 -29 -15 -57 -56 -9 -13 -20 -23 -27 -22
-7 0 -6 2 2 6 6 2 10 9 6 14 -3 5 0 9 6 9 6 0 8 5 4 12 -4 6 -3 8 3 5 6 -4 14
0 17 8 13 36 -35 -8 -60 -53 -14 -26 -22 -38 -18 -27 4 11 7 30 8 41 1 12 9
31 19 42 10 11 20 32 22 48 4 26 3 27 -8 10 -6 -10 -22 -31 -34 -45 -21 -25
-22 -25 -18 -4 5 28 -10 40 -19 15 -8 -23 -25 -50 -58 -93 -16 -20 -28 -41
-28 -47 0 -7 -8 -20 -17 -30 -19 -18 -53 -107 -53 -136 0 -9 -3 -16 -7 -16 -6
0 -402 132 -443 147 -8 4 -25 8 -37 10 -30 5 -101 31 -86 32 22 2 49 116 30
127 -7 4 -9 4 -5 0 3 -4 0 -15 -8 -24 -8 -10 -24 -28 -34 -42 l-19 -25 9 34
c5 19 8 37 6 39 -3 2 5 20 16 40 l20 37 -25 -23 c-13 -13 -33 -40 -43 -60 -26
-51 -54 -88 -54 -71 0 11 -2 11 -10 -1 -8 -13 -11 -13 -22 -1 -7 8 -8 11 -2 8
7 -4 12 3 13 18 4 56 6 63 13 59 4 -3 8 -2 9 3 0 4 2 19 3 33 3 23 2 23 -10 5
-7 -11 -20 -29 -28 -40 -13 -19 -14 -18 -9 9 11 57 -26 1 -51 -78 -5 -14 -10
-16 -17 -9 -8 8 -7 17 1 32 6 12 9 27 7 34 -2 7 -11 -5 -20 -25 -15 -35 -19
-38 -56 -38 -22 0 -46 -3 -55 -6 -27 -10 -22 130 6 203 31 78 154 203 258 262
l75 42 -64 -5 c-74 -7 -130 -31 -189 -82 -49 -41 -54 -33 -13 22 81 113 207
175 507 249 285 71 413 141 538 293 l61 75 5 -64 5 -64 34 35 c37 39 91 143
91 178 0 43 19 21 40 -44 11 -36 20 -93 20 -125 0 -32 4 -59 9 -59 5 0 31 15
57 33 282 190 428 369 446 549 5 39 1 51 -19 75 -18 20 -23 23 -18 8z m-2157
-1274 c23 -11 24 -15 17 -68 -9 -73 -37 -107 -49 -59 -25 100 -27 234 -2 164
5 -14 20 -31 34 -37z m-81 -163 c-3 -8 -6 -5 -6 6 -1 11 2 17 5 13 3 -3 4 -12
1 -19z m1829 -36 c-18 -16 -18 -16 -6 6 6 13 14 21 18 18 3 -4 -2 -14 -12 -24z
m-176 -2 c-6 -11 -13 -20 -16 -20 -2 0 0 9 6 20 6 11 13 20 16 20 2 0 0 -9 -6
-20z m210 -120 c-6 -11 -13 -20 -16 -20 -2 0 0 9 6 20 6 11 13 20 16 20 2 0 0
-9 -6 -20z m-1850 -21 c0 -6 -4 -7 -10 -4 -5 3 -10 11 -10 16 0 6 5 7 10 4 6
-3 10 -11 10 -16z m535 -4 c125 -13 534 -134 790 -234 44 -17 80 -31 81 -31 1
0 11 15 22 33 25 43 109 98 197 130 133 47 438 97 598 97 l79 0 -9 -32 c-4
-18 -8 -90 -8 -159 l0 -126 38 -44 c21 -24 34 -45 30 -46 -5 -2 -35 -6 -68
-11 -59 -7 -60 -7 -63 -42 l-4 -34 -17 22 c-16 22 -20 22 -66 12 -74 -17 -230
-15 -305 5 -36 9 -96 32 -135 51 l-69 34 -29 -28 c-16 -15 -42 -44 -59 -64
l-29 -37 21 -48 c12 -26 33 -61 48 -76 27 -28 27 -29 7 -44 -11 -8 -40 -26
-65 -40 -84 -49 -85 -51 -41 -93 25 -24 41 -50 45 -75 l7 -37 51 6 c28 4 63
13 78 21 40 21 87 79 101 125 12 39 14 40 55 40 72 0 81 -9 35 -37 -23 -13
-41 -26 -41 -29 0 -3 6 -2 13 2 6 4 -20 -25 -59 -64 -68 -68 -104 -122 -104
-154 0 -17 23 -39 59 -58 l24 -13 -21 28 c-39 50 -30 78 51 159 51 51 94 83
140 105 78 37 149 46 155 19 4 -19 -15 -26 -93 -32 l-50 -3 -3 -41 c-10 -136
170 -196 257 -86 12 15 21 35 21 45 0 10 5 21 11 25 8 5 10 -19 8 -81 -3 -74
-7 -90 -23 -99 -11 -6 -33 -23 -50 -39 l-31 -27 28 10 c92 33 107 55 109 157
1 74 20 107 68 116 34 7 37 21 15 74 -8 20 -14 37 -13 38 2 2 27 6 56 10 50 7
52 6 52 -17 1 -42 11 -142 20 -203 19 -127 21 -153 11 -215 -6 -36 -26 -96
-44 -135 -50 -102 -68 -147 -63 -152 11 -11 69 76 72 108 1 20 10 51 18 70
l16 34 -4 -62 c-2 -35 -2 -63 1 -63 3 0 17 8 31 19 15 10 38 22 52 26 14 4 28
12 31 17 9 14 35 -1 49 -28 7 -13 15 -22 17 -20 3 2 -2 17 -11 34 -17 33 -64
57 -101 50 -32 -7 -31 0 5 50 21 29 41 45 70 53 55 17 60 8 60 -106 0 -198
-67 -374 -169 -443 -54 -37 -91 -43 -48 -8 29 23 67 74 67 89 0 5 -17 -12 -37
-36 -21 -25 -51 -51 -66 -58 -24 -10 -30 -9 -41 6 -11 15 -14 0 -20 -101 -4
-65 -14 -144 -23 -174 -28 -98 -113 -161 -439 -326 -88 -45 -211 -108 -273
-140 l-113 -59 -122 1 -121 0 -80 44 c-44 23 -165 86 -270 138 -200 100 -344
184 -402 235 -53 47 -69 95 -94 287 -6 52 -16 102 -21 110 -6 11 -7 9 -3 -7 4
-16 2 -23 -7 -23 -21 0 -95 81 -113 123 -18 44 -27 49 -15 7 11 -38 40 -80 85
-118 39 -35 31 -49 -20 -32 -69 23 -153 150 -189 285 -19 68 -32 249 -22 289
5 20 12 26 34 26 41 -1 66 -19 114 -85 62 -85 66 -94 29 -62 -43 36 -94 37
-117 2 -20 -31 -31 -105 -15 -105 6 0 11 15 11 33 0 40 24 77 51 77 34 0 57
-18 94 -73 l36 -52 -5 45 c-5 36 -4 39 3 14 9 -34 39 -82 66 -104 15 -12 16
-10 9 16 -3 16 -21 74 -39 129 -52 157 -58 199 -50 379 3 89 9 169 11 179 4
12 15 17 37 17 46 0 62 -13 48 -38 -18 -35 -14 -72 11 -81 15 -5 28 -26 42
-72 12 -35 26 -63 33 -62 6 1 15 -12 18 -30 11 -49 36 -71 105 -92 l25 -8 -20
23 c-11 12 -32 28 -47 36 -23 12 -27 22 -33 78 -5 46 -3 78 9 117 27 91 32 94
144 91 92 -2 188 -25 177 -42 -2 -4 -29 -10 -59 -13 -71 -7 -76 -11 -76 -53 0
-131 176 -184 259 -78 12 15 23 25 24 23 2 -2 13 -17 25 -33 29 -38 28 -58 -5
-97 l-27 -32 24 13 c62 32 76 71 44 120 -28 42 -116 130 -162 162 -56 39 -48
47 14 14 70 -37 91 -34 58 9 -13 18 -13 20 3 26 11 4 26 -5 46 -28 16 -18 33
-33 38 -33 6 0 39 -14 74 -30 l64 -30 47 46 c38 36 45 48 33 55 -8 5 -42 25
-76 45 l-62 37 35 40 c19 23 39 58 46 78 11 37 10 38 -47 103 l-58 65 -26 -18
c-43 -30 -159 -72 -230 -83 -62 -10 -222 -5 -283 8 -22 5 -29 1 -42 -22 l-15
-29 -1 41 c0 38 -2 42 -31 48 -17 3 -46 6 -63 6 l-31 1 38 33 c20 18 37 40 37
47 0 23 -57 200 -85 262 -15 35 -20 57 -13 57 6 0 9 3 6 6 -11 11 27 42 47 38
11 -1 47 -6 80 -9z m815 -146 c-7 -11 -14 -18 -17 -15 -3 3 0 12 7 21 18 21
23 19 10 -6z m-1363 -55 c-3 -3 -1 -18 4 -33 9 -24 8 -25 -6 -7 -18 24 -20 46
-3 46 6 0 9 -3 5 -6z m-20 -71 c-4 -3 -2 -12 5 -20 8 -11 7 -12 -6 -7 -18 7
-22 34 -4 34 6 0 8 -3 5 -7z m-10 -63 c-2 -23 -10 -17 -12 10 -1 10 2 17 6 14
4 -2 7 -13 6 -24z m-20 -55 c0 -8 -4 -12 -9 -9 -5 3 -6 10 -3 15 9 13 12 11
12 -6z m-3 -41 c3 -8 2 -12 -4 -9 -6 3 -10 10 -10 16 0 14 7 11 14 -7z m2196
-354 c0 -5 -6 -10 -14 -10 -8 0 -18 5 -21 10 -3 6 3 10 14 10 12 0 21 -4 21
-10z m-125 -106 c16 -12 35 -14 93 -8 59 5 72 4 72 -8 0 -29 -48 -61 -97 -65
-56 -5 -91 11 -113 50 -13 24 -13 29 0 37 19 12 21 12 45 -6z m-1170 -10 c16
-12 36 -14 99 -8 l78 7 -12 -22 c-16 -32 -69 -61 -110 -61 -64 0 -137 67 -99
91 18 11 20 11 44 -7z m865 -1662 c-16 -101 -28 -131 -31 -77 l-1 40 -10 -45
c-34 -165 -50 -226 -69 -269 -18 -42 -28 -52 -67 -69 -117 -49 -170 -49 -284
0 -44 19 -48 23 -72 91 -31 87 -42 134 -51 209 -10 92 -29 85 -23 -8 5 -79 5
-79 -9 -34 -17 58 -36 217 -29 237 5 13 10 12 30 -8 13 -13 58 -48 100 -78 70
-49 82 -54 157 -63 45 -5 96 -7 113 -4 17 4 67 33 111 66 44 33 84 60 89 60 4
0 18 12 29 27 28 35 32 18 17 -75z m-651 -72 c15 -103 40 -187 50 -171 5 8 10
-4 14 -29 3 -22 17 -56 32 -75 14 -19 22 -35 17 -35 -24 0 -132 98 -174 158
-27 39 -68 139 -68 167 0 7 20 18 45 25 24 7 50 19 56 26 6 8 13 14 14 14 2 0
8 -36 14 -80z m758 41 l41 -11 -13 -50 c-19 -71 -67 -150 -128 -207 -77 -73
-123 -94 -77 -36 11 14 20 33 20 43 0 9 9 42 20 74 10 31 27 95 36 141 17 84
17 85 39 71 12 -8 40 -19 62 -25z"/>
<path d="M2252 1748 c-6 -7 -42 -31 -81 -53 l-69 -40 -11 -61 c-6 -33 -11 -63
-11 -66 0 -3 13 -8 30 -10 27 -4 29 -3 15 12 -9 10 -15 36 -15 67 l0 51 56 32
c31 17 58 29 60 27 3 -2 0 -16 -6 -31 -5 -15 -10 -40 -10 -55 0 -19 -10 -36
-35 -57 -32 -26 -34 -30 -18 -41 20 -15 99 -17 108 -3 3 5 -3 27 -15 49 -25
50 -25 68 0 133 20 54 21 68 2 46z"/>
<path d="M2706 1691 c12 -23 15 -51 12 -97 -3 -43 -1 -61 6 -54 6 6 12 38 14
73 4 57 2 64 -22 86 l-26 25 16 -33z"/>
<path d="M2376 1590 c-108 -4 -117 -6 -101 -20 15 -12 47 -15 168 -13 130 2
148 1 137 -12 -11 -13 -7 -15 21 -17 52 -2 83 2 94 13 12 12 -11 29 -41 29
-12 0 -35 7 -50 15 -16 8 -47 14 -69 13 -22 -1 -94 -4 -159 -8z"/>
<path d="M3240 1487 c0 -2 7 -20 15 -38 14 -33 14 -33 15 -8 0 15 -7 32 -15
39 -8 7 -15 10 -15 7z"/>
<path d="M3095 1443 c-250 -66 -478 -88 -830 -80 -240 5 -363 17 -520 51 -61
13 -73 13 -92 0 -19 -12 -23 -23 -23 -67 1 -28 7 -63 15 -77 17 -29 18 -20 6
33 -5 20 -7 37 -4 37 3 0 35 -27 71 -61 129 -118 315 -223 467 -264 82 -23
273 -30 376 -16 241 35 541 203 640 359 l28 44 3 -39 4 -38 8 48 c11 61 -4 98
-36 96 -13 -1 -63 -13 -113 -26z m79 -19 c71 -27 -120 -208 -329 -312 -49 -24
-138 -55 -225 -78 -98 -27 -319 -24 -425 4 -159 43 -371 168 -485 286 -64 66
-50 74 87 53 251 -39 293 -42 568 -42 212 1 309 5 400 18 137 20 319 55 349
67 26 11 40 12 60 4z"/>
<path d="M3357 1430 c-4 -14 -11 -54 -18 -89 -11 -70 -47 -173 -75 -218 -10
-15 -40 -55 -68 -87 l-51 -60 54 29 c62 34 101 78 138 155 22 44 28 73 31 150
2 52 2 106 0 120 l-4 25 -7 -25z"/>
<path d="M1617 1424 c-4 -4 -7 -19 -6 -33 l0 -26 10 24 c10 26 8 47 -4 35z"/>
<path d="M1503 1290 c3 -66 9 -98 28 -140 31 -66 71 -115 110 -136 l29 -15
-36 48 c-51 67 -102 177 -119 259 l-15 69 3 -85z"/>
<path d="M2314 341 c13 -24 23 -31 46 -31 17 0 30 5 30 10 0 6 15 10 33 10 17
0 38 4 46 9 10 6 -11 11 -60 13 -41 2 -82 8 -93 12 -17 9 -17 7 -2 -23z"/>
<path d="M3322 4673 c2 -5 51 -80 109 -168 58 -88 122 -191 143 -229 l37 -69
-11 -96 c-12 -101 -28 -204 -36 -233 -15 -49 79 26 130 105 10 15 22 24 27 21
11 -6 11 3 0 31 -7 17 -11 14 -34 -26 -31 -53 -103 -125 -93 -94 3 11 13 82
21 158 l15 137 -26 53 c-15 28 -47 86 -72 127 -65 106 -233 332 -210 283z"/>
<path d="M2520 3286 c0 -8 4 -17 9 -20 5 -4 7 3 4 14 -6 23 -13 26 -13 6z"/>
<path d="M1800 3275 c0 -8 4 -15 10 -15 5 0 7 7 4 15 -4 8 -8 15 -10 15 -2 0
-4 -7 -4 -15z"/>
<path d="M1681 3214 c-12 -26 -20 -48 -17 -51 2 -3 14 17 25 43 27 61 21 67
-8 8z"/>
<path d="M1896 3232 c-3 -5 1 -9 9 -9 8 0 12 4 9 9 -3 4 -7 8 -9 8 -2 0 -6 -4
-9 -8z"/>
<path d="M1956 3223 c-6 -14 -5 -15 5 -6 7 7 10 15 7 18 -3 3 -9 -2 -12 -12z"/>
<path d="M2545 3209 c-4 -6 -5 -12 -2 -15 2 -3 7 2 10 11 7 17 1 20 -8 4z"/>
<path d="M1890 3115 c-7 -9 -8 -15 -2 -15 5 0 12 7 16 15 3 8 4 15 2 15 -2 0
-9 -7 -16 -15z"/>
<path d="M2291 2974 c0 -11 3 -14 6 -6 3 7 2 16 -1 19 -3 4 -6 -2 -5 -13z"/>
</g>
</svg>
